<svg width="42" height="39" viewBox="0 0 42 39" fill="none" xmlns="http://www.w3.org/2000/svg">
<path d="M14.6473 16.1342C12.5216 16.2055 10.6284 16.7397 8.96772 17.737C7.34025 18.6986 6.17776 20.0877 5.48028 21.9041V39H0V11.0589H5.08171V17.3096C5.97848 15.3863 7.14096 13.8548 8.56916 12.7151C10.0306 11.5397 11.5916 10.8986 13.2523 10.7918C13.5844 10.7918 13.8501 10.7918 14.0494 10.7918C14.2819 10.7918 14.4812 10.8096 14.6473 10.8452V16.1342Z" fill="#018C95"/>
<path d="M42 39H36.5197V23.3466C36.5197 20.7822 36.0879 18.8945 35.2244 17.6836C34.394 16.437 33.1817 15.8137 31.5875 15.8137C30.8236 15.8137 30.0596 15.974 29.2957 16.2945C28.5318 16.6151 27.8011 17.0781 27.1036 17.6836C26.4393 18.2534 25.8415 18.9479 25.3101 19.7671C24.7787 20.5507 24.3801 21.4233 24.1144 22.3849V39H18.6341V0H24.1144V16.6685C25.1108 14.7452 26.4559 13.2493 28.1498 12.1808C29.877 11.1123 31.7535 10.5781 33.7796 10.5781C35.4071 10.5781 36.7356 10.8986 37.7652 11.5397C38.8281 12.1452 39.675 12.9644 40.3061 13.9973C40.9372 15.0301 41.3689 16.2411 41.6014 17.6301C41.8671 18.9836 42 20.426 42 21.9575V39Z" fill="#018C95"/>
</svg>
